<?xml version="1.0" standalone="no"?>
<!DOCTYPE svg PUBLIC "-//W3C//DTD SVG 20010904//EN"
 "http://www.w3.org/TR/2001/REC-SVG-20010904/DTD/svg10.dtd">
<svg version="1.0" xmlns="http://www.w3.org/2000/svg"
 width="640.000000pt" height="640.000000pt" viewBox="0 0 640.000000 640.000000"
 preserveAspectRatio="xMidYMid meet">
<metadata>
Created by potrace 1.14, written by Peter Selinger 2001-2017
</metadata>
<g transform="translate(0.000000,640.000000) scale(0.100000,-0.100000)"
fill="#000000" stroke="none">
<path d="M4342 4500 c-15 -24 -16 -57 -1 -65 7 -5 9 -154 6 -483 -2 -263 -2
-496 0 -519 l5 -43 134 0 134 0 0 -500 0 -500 -95 0 -95 0 5 197 c3 109 10
202 15 207 16 16 11 52 -8 69 -46 41 -94 -1 -73 -64 7 -23 9 -107 5 -251 l-5
-218 130 0 131 0 0 -115 0 -115 413 -3 c226 -2 423 -7 437 -11 21 -6 28 -3 39
17 30 55 -24 113 -68 73 -15 -14 -61 -16 -389 -16 l-372 0 0 85 0 85 500 0
500 0 0 105 0 105 -47 0 c-447 4 -607 11 -623 25 -22 20 -43 19 -63 -3 -23
-25 -21 -55 3 -77 17 -16 25 -17 58 -6 26 8 101 10 252 7 118 -3 248 -5 288
-5 l72 -1 0 -45 0 -45 -475 0 -475 0 0 455 0 455 279 0 c176 0 282 -4 286 -10
10 -16 40 -12 58 8 22 24 21 55 -1 75 -23 21 -46 22 -62 2 -11 -13 -55 -15
-286 -15 l-274 0 0 370 0 370 470 0 470 0 0 -45 0 -45 -316 0 c-267 0 -318 2
-330 15 -32 32 -83 7 -83 -40 0 -42 55 -75 74 -45 4 6 135 10 361 10 l354 0 0
105 0 105 -530 0 -530 0 0 -355 0 -355 -104 0 c-77 0 -105 3 -109 13 -5 14 1
808 6 814 2 1 213 5 470 8 313 4 467 2 467 -5 0 -5 14 -10 30 -10 63 0 67 101
5 108 -18 2 -33 -2 -40 -12 -10 -13 -72 -16 -473 -20 l-462 -6 0 45 c0 24 5
47 10 50 15 9 12 52 -6 69 -21 22 -57 20 -72 -4z"/>
<path d="M2818 4152 l-138 -3 -1 -92 c0 -51 -2 -264 -5 -474 l-5 -383 501 0
500 0 1 -102 c0 -57 2 -246 4 -420 l4 -318 -460 0 c-252 0 -459 2 -459 4 0 2
7 20 15 40 l15 36 295 0 295 0 0 30 0 30 -317 -2 -317 -3 -37 -90 c-21 -49
-39 -93 -39 -97 0 -5 241 -8 535 -8 l535 0 -4 373 c-3 204 -5 420 -5 480 l-1
107 -500 0 -500 0 5 412 c3 226 7 413 8 415 4 4 927 12 927 8 0 -2 -9 -24 -20
-49 l-19 -46 -321 0 -320 0 0 -30 0 -30 340 0 341 0 20 47 c42 99 51 118 60
135 5 10 9 22 9 28 0 9 -529 11 -942 2z"/>
<path d="M515 4129 c4 -12 20 -56 35 -98 l27 -76 601 -3 602 -2 0 30 0 30
-578 0 -579 0 -16 40 -15 40 596 -5 c328 -2 659 -4 735 -4 l139 -1 -28 -32
c-15 -18 -54 -64 -88 -102 -81 -92 -72 -82 -146 -166 -60 -69 -110 -126 -135
-154 -5 -6 -39 -45 -75 -86 -36 -41 -67 -77 -70 -80 -3 -3 -34 -39 -69 -80
-36 -41 -70 -79 -75 -85 -6 -5 -38 -41 -71 -80 -33 -38 -72 -83 -87 -100 -14
-16 -35 -39 -45 -51 -10 -12 -45 -52 -79 -90 -34 -38 -179 -204 -323 -369
l-263 -300 863 -3 c474 -1 864 0 866 2 2 2 -14 48 -35 102 l-40 99 -581 3
-581 2 0 -30 0 -30 561 -2 561 -3 15 -38 c9 -21 13 -40 11 -42 -3 -3 -343 -4
-756 -3 l-752 3 28 30 c15 17 56 64 92 105 35 41 67 77 70 80 3 3 32 37 65 75
33 39 62 72 65 75 3 3 84 95 180 205 96 110 177 202 180 205 3 3 34 39 70 80
67 77 117 135 135 154 6 6 53 61 105 121 52 61 98 112 101 115 3 3 41 46 84
95 44 50 87 99 96 110 10 11 27 31 39 45 28 32 120 137 188 214 29 32 51 60
49 62 -2 2 -380 6 -841 10 l-838 6 7 -23z"/>
</g>
</svg>
